<svg xmlns="http://www.w3.org/2000/svg" width="1600" height="1000" viewBox="0 0 1600 1000">
  <defs>
    <linearGradient id="bg" x1="0" y1="0" x2="1" y2="1">
      <stop stop-color="#06152E"/>
      <stop offset=".56" stop-color="#071B3B"/>
      <stop offset="1" stop-color="#2563EB"/>
    </linearGradient>
    <linearGradient id="gold" x1="0" y1="0" x2="1" y2="1">
      <stop stop-color="#FFF3C4"/>
      <stop offset="1" stop-color="#F4C76A"/>
    </linearGradient>
    <filter id="shadow" x="-20%" y="-20%" width="140%" height="140%">
      <feDropShadow dx="0" dy="34" stdDeviation="32" flood-color="#000000" flood-opacity=".34"/>
    </filter>
  </defs>
  <rect width="1600" height="1000" fill="url(#bg)"/>
  <circle cx="1260" cy="190" r="300" fill="#F4C76A" opacity=".18"/>
  <circle cx="250" cy="820" r="330" fill="#2563EB" opacity=".28"/>
  <g filter="url(#shadow)">
    <rect x="150" y="130" width="1300" height="740" rx="54" fill="#FFFFFF" opacity=".12" stroke="#FFFFFF" stroke-opacity=".22"/>
    <rect x="220" y="200" width="1160" height="600" rx="42" fill="#F8FAFC"/>
    <rect x="220" y="200" width="250" height="600" rx="42" fill="#071B3B"/>
    <rect x="520" y="260" width="360" height="170" rx="34" fill="#071B3B"/>
    <rect x="920" y="260" width="360" height="170" rx="34" fill="#2563EB"/>
    <rect x="520" y="485" width="760" height="235" rx="34" fill="#FFFFFF" stroke="#E6EBF3"/>
    <path d="M575 655 C670 545 735 620 815 475 C895 340 990 590 1110 405 C1190 280 1245 360 1260 330" fill="none" stroke="#F4C76A" stroke-width="14" stroke-linecap="round"/>
    <rect x="270" y="285" width="135" height="18" rx="9" fill="#FFFFFF" opacity=".7"/>
    <rect x="270" y="355" width="145" height="52" rx="20" fill="#FFFFFF" opacity=".12"/>
    <rect x="270" y="435" width="145" height="52" rx="20" fill="#FFFFFF" opacity=".12"/>
    <rect x="270" y="515" width="145" height="52" rx="20" fill="#FFFFFF" opacity=".12"/>
    <circle cx="810" cy="345" r="44" fill="url(#gold)"/>
    <rect x="565" y="310" width="170" height="22" rx="11" fill="#FFFFFF" opacity=".86"/>
    <rect x="565" y="358" width="120" height="18" rx="9" fill="#FFFFFF" opacity=".45"/>
    <rect x="965" y="310" width="180" height="22" rx="11" fill="#FFFFFF" opacity=".86"/>
    <rect x="965" y="358" width="135" height="18" rx="9" fill="#FFFFFF" opacity=".48"/>
  </g>
  <text x="300" y="925" font-family="Arial, sans-serif" font-size="54" font-weight="900" fill="#FFFFFF">Premium Training Dashboard</text>
  <text x="300" y="970" font-family="Arial, sans-serif" font-size="26" font-weight="700" fill="#FFFFFF" opacity=".68">Visual lessons, analytics, progress and digital business systems</text>
</svg>
