<svg xmlns="http://www.w3.org/2000/svg" width="1400" height="900" viewBox="0 0 1400 900">
  <defs>
    <linearGradient id="bg" x1="0" y1="0" x2="1" y2="1">
      <stop stop-color="#071B3B"/>
      <stop offset=".6" stop-color="#4C1D95"/>
      <stop offset="1" stop-color="#2563EB"/>
    </linearGradient>
    <linearGradient id="gold" x1="0" y1="0" x2="1" y2="1">
      <stop stop-color="#FFF3C4"/>
      <stop offset="1" stop-color="#F4C76A"/>
    </linearGradient>
    <filter id="shadow" x="-20%" y="-20%" width="140%" height="140%">
      <feDropShadow dx="0" dy="30" stdDeviation="28" flood-color="#000000" flood-opacity=".32"/>
    </filter>
  </defs>
  <rect width="1400" height="900" fill="url(#bg)"/>
  <circle cx="1100" cy="190" r="240" fill="#F4C76A" opacity=".18"/>
  <circle cx="220" cy="725" r="250" fill="#2563EB" opacity=".25"/>
  <g filter="url(#shadow)">
    <rect x="190" y="145" width="1020" height="610" rx="44" fill="#FFFFFF" opacity=".14" stroke="#FFFFFF" stroke-opacity=".2"/>
    <rect x="270" y="220" width="420" height="460" rx="36" fill="#FFFFFF" opacity=".96"/>
    <rect x="735" y="220" width="390" height="460" rx="36" fill="#06152E"/>
    <rect x="325" y="285" width="250" height="28" rx="14" fill="#071B3B"/>
    <rect x="325" y="345" width="300" height="24" rx="12" fill="#CBD5E1"/>
    <rect x="325" y="395" width="250" height="24" rx="12" fill="#CBD5E1"/>
    <rect x="325" y="470" width="220" height="58" rx="29" fill="#2563EB"/>
    <rect x="790" y="280" width="150" height="150" rx="34" fill="url(#gold)"/>
    <rect x="965" y="280" width="110" height="150" rx="34" fill="#FFFFFF" opacity=".16"/>
    <rect x="790" y="475" width="285" height="30" rx="15" fill="#FFFFFF" opacity=".78"/>
    <rect x="790" y="535" width="220" height="24" rx="12" fill="#FFFFFF" opacity=".42"/>
  </g>
  <text x="220" y="830" font-family="Arial, sans-serif" font-size="42" font-weight="900" fill="#FFFFFF">Digital Product Selling</text>
  <text x="220" y="872" font-family="Arial, sans-serif" font-size="24" font-weight="700" fill="#FFFFFF" opacity=".72">Offers, checkout funnels and premium launches</text>
</svg>
