<svg xmlns="http://www.w3.org/2000/svg" width="1400" height="900" viewBox="0 0 1400 900">
  <defs>
    <linearGradient id="bg" x1="0" y1="0" x2="1" y2="1">
      <stop stop-color="#06152E"/>
      <stop offset=".48" stop-color="#071B3B"/>
      <stop offset="1" stop-color="#2563EB"/>
    </linearGradient>
    <filter id="shadow" x="-20%" y="-20%" width="140%" height="140%">
      <feDropShadow dx="0" dy="30" stdDeviation="28" flood-color="#000000" flood-opacity=".3"/>
    </filter>
  </defs>
  <rect width="1400" height="900" fill="url(#bg)"/>
  <circle cx="1130" cy="670" r="260" fill="#F4C76A" opacity=".18"/>
  <circle cx="250" cy="180" r="230" fill="#2563EB" opacity=".28"/>
  <g filter="url(#shadow)">
    <rect x="135" y="145" width="1130" height="610" rx="44" fill="#FFFFFF" opacity=".96"/>
    <rect x="205" y="215" width="280" height="470" rx="34" fill="#F5F7FA"/>
    <rect x="535" y="215" width="660" height="470" rx="34" fill="#071B3B"/>
    <rect x="245" y="260" width="160" height="24" rx="12" fill="#071B3B"/>
    <rect x="245" y="320" width="200" height="64" rx="20" fill="#FFFFFF"/>
    <rect x="245" y="410" width="200" height="64" rx="20" fill="#FFFFFF"/>
    <rect x="245" y="500" width="200" height="64" rx="20" fill="#FFFFFF"/>
    <path d="M610 575 C700 430 760 510 830 360 C900 210 990 430 1120 260" fill="none" stroke="#F4C76A" stroke-width="16" stroke-linecap="round"/>
    <rect x="610" y="290" width="170" height="46" rx="23" fill="#2563EB"/>
    <rect x="610" y="620" width="230" height="28" rx="14" fill="#FFFFFF" opacity=".8"/>
    <rect x="875" y="620" width="170" height="28" rx="14" fill="#FFFFFF" opacity=".38"/>
  </g>
  <text x="195" y="830" font-family="Arial, sans-serif" font-size="42" font-weight="900" fill="#FFFFFF">Facebook Ads Mastery</text>
  <text x="195" y="872" font-family="Arial, sans-serif" font-size="24" font-weight="700" fill="#FFFFFF" opacity=".72">Campaign dashboards and profitable acquisition systems</text>
</svg>
