<svg xmlns="http://www.w3.org/2000/svg" width="1400" height="900" viewBox="0 0 1400 900">
  <defs>
    <linearGradient id="bg" x1="0" y1="0" x2="1" y2="1">
      <stop stop-color="#071B3B"/>
      <stop offset=".58" stop-color="#111827"/>
      <stop offset="1" stop-color="#2563EB"/>
    </linearGradient>
    <linearGradient id="screen" x1="0" y1="0" x2="1" y2="1">
      <stop stop-color="#FFFFFF" stop-opacity=".22"/>
      <stop offset="1" stop-color="#FFFFFF" stop-opacity=".06"/>
    </linearGradient>
    <filter id="shadow" x="-20%" y="-20%" width="140%" height="140%">
      <feDropShadow dx="0" dy="30" stdDeviation="28" flood-color="#000000" flood-opacity=".34"/>
    </filter>
  </defs>
  <rect width="1400" height="900" fill="url(#bg)"/>
  <circle cx="1060" cy="160" r="260" fill="#F4C76A" opacity=".16"/>
  <circle cx="270" cy="220" r="210" fill="#2563EB" opacity=".3"/>
  <g filter="url(#shadow)">
    <rect x="430" y="100" width="540" height="700" rx="58" fill="#0B1224" stroke="#FFFFFF" stroke-opacity=".14" stroke-width="4"/>
    <rect x="475" y="165" width="450" height="570" rx="38" fill="#F5F7FA"/>
    <rect x="515" y="205" width="370" height="270" rx="34" fill="#071B3B"/>
    <circle cx="700" cy="340" r="84" fill="#F4C76A" opacity=".9"/>
    <path d="M680 295v112l96-56z" fill="#071B3B"/>
    <rect x="515" y="510" width="260" height="28" rx="14" fill="#071B3B"/>
    <rect x="515" y="560" width="330" height="22" rx="11" fill="#CBD5E1"/>
    <rect x="515" y="602" width="300" height="22" rx="11" fill="#CBD5E1"/>
    <rect x="515" y="662" width="180" height="44" rx="22" fill="#2563EB"/>
  </g>
  <g filter="url(#shadow)">
    <rect x="160" y="565" width="340" height="150" rx="32" fill="#FFFFFF" opacity=".94"/>
    <text x="200" y="625" font-family="Arial, sans-serif" font-size="28" font-weight="900" fill="#071B3B">TikTok Blueprint</text>
    <text x="200" y="670" font-family="Arial, sans-serif" font-size="22" font-weight="700" fill="#2563EB">Short-form monetization</text>
  </g>
  <g filter="url(#shadow)">
    <rect x="935" y="560" width="260" height="110" rx="28" fill="#FFFFFF" opacity=".18" stroke="#FFFFFF" stroke-opacity=".2"/>
    <rect x="975" y="598" width="70" height="40" rx="20" fill="#F4C76A"/>
    <rect x="1065" y="604" width="88" height="12" rx="6" fill="#FFFFFF" opacity=".75"/>
    <rect x="1065" y="628" width="65" height="10" rx="5" fill="#FFFFFF" opacity=".45"/>
  </g>
</svg>
