<svg xmlns="http://www.w3.org/2000/svg" width="1400" height="900" viewBox="0 0 1400 900">
  <defs>
    <linearGradient id="bg" x1="0" y1="0" x2="1" y2="1">
      <stop stop-color="#071B3B"/>
      <stop offset=".62" stop-color="#7F1D1D"/>
      <stop offset="1" stop-color="#EF4444"/>
    </linearGradient>
    <filter id="shadow" x="-20%" y="-20%" width="140%" height="140%">
      <feDropShadow dx="0" dy="30" stdDeviation="28" flood-color="#000000" flood-opacity=".32"/>
    </filter>
  </defs>
  <rect width="1400" height="900" fill="url(#bg)"/>
  <circle cx="1090" cy="180" r="250" fill="#F4C76A" opacity=".18"/>
  <circle cx="180" cy="760" r="270" fill="#2563EB" opacity=".25"/>
  <g filter="url(#shadow)">
    <rect x="135" y="150" width="1130" height="610" rx="44" fill="#FFFFFF" opacity=".13" stroke="#FFFFFF" stroke-opacity=".18"/>
    <rect x="210" y="220" width="680" height="420" rx="34" fill="#F8FAFC"/>
    <rect x="250" y="265" width="600" height="300" rx="28" fill="#071B3B"/>
    <circle cx="550" cy="415" r="78" fill="#EF4444"/>
    <path d="M525 368v94l82-47z" fill="#FFFFFF"/>
    <rect x="250" y="602" width="360" height="24" rx="12" fill="#071B3B"/>
    <rect x="640" y="604" width="110" height="20" rx="10" fill="#F4C76A"/>
    <rect x="930" y="240" width="250" height="86" rx="24" fill="#FFFFFF" opacity=".92"/>
    <rect x="930" y="360" width="250" height="86" rx="24" fill="#FFFFFF" opacity=".92"/>
    <rect x="930" y="480" width="250" height="86" rx="24" fill="#FFFFFF" opacity=".92"/>
    <rect x="970" y="272" width="145" height="14" rx="7" fill="#071B3B"/>
    <rect x="970" y="392" width="130" height="14" rx="7" fill="#071B3B"/>
    <rect x="970" y="512" width="155" height="14" rx="7" fill="#071B3B"/>
  </g>
  <text x="200" y="805" font-family="Arial, sans-serif" font-size="42" font-weight="900" fill="#FFFFFF">YouTube Growth Channel</text>
  <text x="200" y="850" font-family="Arial, sans-serif" font-size="24" font-weight="700" fill="#FFFFFF" opacity=".72">Retention, thumbnails, SEO and monetization</text>
</svg>
